<?xml version="1.0" encoding="utf-8"?>
<!-- Generator: Adobe Illustrator 16.0.0, SVG Export Plug-In . SVG Version: 6.00 Build 0)  -->
<!DOCTYPE svg PUBLIC "-//W3C//DTD SVG 1.1//EN" "http://www.w3.org/Graphics/SVG/1.1/DTD/svg11.dtd">
<svg version="1.1" id="Layer_1" xmlns="http://www.w3.org/2000/svg" xmlns:xlink="http://www.w3.org/1999/xlink" x="0px" y="0px"
	 width="512px" height="512px" viewBox="0 0 512 512" enable-background="new 0 0 512 512" xml:space="preserve">
<g id="_x34__news_x2C__press_x2C__release_x2C__marketing_x2C__promotion_x2C__seo_x2C__horn">
	<g>
		<path fill="#E6E9ED" d="M507.869,20.03H52.077v351.839c0,13.244-10.737,23.988-23.989,23.988h23.989h431.802
			c13.252,0,23.99-10.744,23.99-23.988v-0.008l0,0V20.03z"/>
	</g>
	<g>
		<path fill="#FFFFFF" d="M68.07,371.869V20.03H52.077v351.839c0,13.244-10.737,23.988-23.989,23.988h15.992
			C57.333,395.857,68.07,385.113,68.07,371.869z"/>
	</g>
	<g opacity="0.1">
		<path d="M507.963,371.869V20.03h-15.992v351.839c0,13.244-10.738,23.988-23.99,23.988h15.992
			C497.225,395.857,507.963,385.113,507.963,371.869z"/>
	</g>
	<g>
		<polygon fill="#656D78" points="362.029,391.938 291.109,402.973 286.658,379.146 357.797,366.91 		"/>
	</g>
	<g opacity="0.2">
		<polygon points="357.797,366.91 350.027,368.246 354.033,391.938 290.883,401.762 291.109,402.973 362.029,391.938 		"/>
	</g>
	<g opacity="0.2">
		<polygon fill="#FFFFFF" points="294.654,379.146 358.023,368.246 357.797,366.91 286.658,379.146 291.109,402.973 
			298.879,401.762 		"/>
	</g>
	<g>
		<rect x="100.055" y="131.979" fill="#5D9CEC" width="111.949" height="71.967"/>
	</g>
	<g>
		<rect x="100.055" y="52.016" fill="#5D9CEC" width="375.828" height="47.978"/>
	</g>
	<g>
		<path fill="#CCD1D9" d="M4.099,44.019v327.85c0,13.244,10.737,23.988,23.989,23.988s23.989-10.744,23.989-23.988V20.03
			L4.099,44.019z"/>
	</g>
	<g>
		<path fill="#FFCE54" d="M132.041,155.968c0,4.412-3.576,7.996-7.996,7.996s-7.996-3.584-7.996-7.996
			c0-4.42,3.576-7.997,7.996-7.997S132.041,151.548,132.041,155.968z"/>
	</g>
	<g>
		<polygon fill="#E6E9ED" points="172.022,163.964 142.099,203.946 202.071,203.946 		"/>
	</g>
	<g>
		<polygon fill="#CCD1D9" points="152.258,190.366 142.099,203.946 118.859,203.946 140.037,171.96 		"/>
	</g>
	<g>
		<polygon fill="#ED5565" points="256.882,376.102 236.891,371.947 222.976,293.186 259.6,270.557 279.027,380.74 		"/>
	</g>
	<g opacity="0.3">
		<polygon fill="#FFFFFF" points="264.879,376.102 244.887,371.947 230.972,293.186 260.389,275.008 259.6,270.557 222.976,293.186 
			236.891,371.947 256.882,376.102 279.027,380.74 278.725,379.006 		"/>
	</g>
	<g>
		<path fill="#F5F7FA" d="M485.738,263.84l-13.994-79.487l-15.758,2.796c8.402,47.26-117.625,69.492-117.625,69.492l-70.844,12.557
			l-7.918,1.359l19.428,110.184l78.77-13.83c0,0,128.738-6.48,134.336,25.027l15.752-2.795L485.738,263.84z"/>
	</g>
	<g>
		<polygon fill="#ED5565" points="507.885,389.143 492.133,391.938 455.986,187.149 471.744,184.353 		"/>
	</g>
	<g opacity="0.2">
		<polygon points="471.744,184.353 463.99,185.728 499.889,389.143 491.893,390.564 492.133,391.938 507.885,389.143 		"/>
	</g>
	<g>
		<polygon fill="#ED5565" points="386.502,483.576 347.16,490.533 306.516,400.316 345.521,393.586 		"/>
	</g>
	<g opacity="0.2">
		<polygon points="345.521,393.586 338.111,394.867 378.506,483.576 346.568,489.221 347.16,490.533 386.502,483.576 		"/>
	</g>
	<g opacity="0.3">
		<polygon fill="#FFFFFF" points="314.512,400.316 346.107,394.867 345.521,393.586 306.516,400.316 347.16,490.533 
			354.564,489.221 		"/>
	</g>
	<g>
		<polygon fill="#E6E9ED" points="357.797,366.91 279.027,380.74 259.6,270.557 338.361,256.641 		"/>
	</g>
	<g>
		<g>
			<path fill="#3A3847" d="M487.963,372.268c-1.896,0-3.584-1.367-3.928-3.303l-27.822-157.452c-0.383-2.171,1.062-4.249,3.24-4.631
				c2.117-0.383,4.24,1.062,4.631,3.24l27.824,157.452c0.381,2.17-1.062,4.248-3.242,4.631
				C488.432,372.244,488.197,372.268,487.963,372.268z"/>
		</g>
		<g>
			<path fill="#3A3847" d="M492.125,395.936c-1.896,0-3.584-1.365-3.928-3.303C484.566,372.221,406.439,368.465,358,370.9
				c-2.414,0.078-4.092-1.592-4.193-3.795c-0.117-2.201,1.586-4.076,3.787-4.193c13.549-0.664,132.432-5.67,138.477,28.322
				c0.389,2.18-1.062,4.248-3.234,4.639C492.594,395.912,492.359,395.936,492.125,395.936z"/>
		</g>
		<g>
			<path fill="#3A3847" d="M338.354,260.639c-1.898,0-3.586-1.367-3.93-3.303c-0.381-2.179,1.07-4.249,3.242-4.631
				c0.873-0.156,88.006-15.859,109.996-47.322c4.021-5.755,5.459-11.495,4.389-17.531c-0.391-2.179,1.062-4.248,3.232-4.639
				c2.203-0.383,4.248,1.062,4.639,3.241c1.445,8.121-0.477,16.032-5.709,23.512c-23.887,34.164-111.441,49.954-115.158,50.61
				C338.82,260.615,338.586,260.639,338.354,260.639z"/>
		</g>
		<g>
			<path fill="#3A3847" d="M455.979,191.147c-1.898,0-3.584-1.358-3.928-3.295c-0.391-2.179,1.062-4.248,3.232-4.639l15.758-2.796
				c2.18-0.39,4.256,1.062,4.639,3.233c0.391,2.179-1.061,4.248-3.232,4.638l-15.758,2.795
				C456.447,191.131,456.213,191.147,455.979,191.147z"/>
		</g>
		<g>
			<path fill="#3A3847" d="M507.877,393.141c-1.898,0-3.584-1.367-3.928-3.303l-36.141-204.79c-0.383-2.179,1.07-4.248,3.24-4.631
				c2.141-0.39,4.248,1.062,4.631,3.241l36.141,204.789c0.383,2.172-1.062,4.248-3.24,4.631
				C508.346,393.117,508.111,393.141,507.877,393.141z"/>
		</g>
		<g>
			<path fill="#3A3847" d="M492.125,395.936c-1.896,0-3.584-1.365-3.928-3.303c-0.389-2.17,1.062-4.248,3.242-4.631l15.75-2.795
				c2.131-0.383,4.248,1.055,4.631,3.232c0.391,2.18-1.062,4.248-3.24,4.639l-15.752,2.795
				C492.594,395.912,492.359,395.936,492.125,395.936z"/>
		</g>
		<g>
			<path fill="#3A3847" d="M279.02,384.738c-1.904,0-3.592-1.367-3.928-3.303c-0.383-2.18,1.07-4.248,3.242-4.631l78.768-13.838
				c2.125-0.359,4.256,1.07,4.631,3.248c0.383,2.18-1.07,4.248-3.24,4.631l-78.77,13.838
				C279.488,384.723,279.254,384.738,279.02,384.738z"/>
		</g>
		<g>
			<path fill="#3A3847" d="M259.592,274.555c-1.906,0-3.6-1.375-3.936-3.326c-0.367-2.172,1.094-4.24,3.264-4.615l78.746-13.909
				c2.139-0.406,4.248,1.062,4.631,3.233c0.383,2.179-1.062,4.255-3.242,4.638l-78.775,13.916
				C260.045,274.531,259.818,274.555,259.592,274.555z"/>
		</g>
		<g>
			<path fill="#3A3847" d="M279.027,384.738c-0.273,0-0.545-0.023-0.818-0.086l-42.13-8.793c-1.601-0.336-2.842-1.609-3.123-3.217
				l-13.916-78.762c-0.289-1.615,0.438-3.24,1.835-4.1l36.623-22.631c1.133-0.693,2.539-0.779,3.734-0.24
				c1.209,0.537,2.076,1.646,2.303,2.951l19.43,110.184c0.232,1.312-0.203,2.646-1.156,3.568
				C281.059,384.34,280.059,384.738,279.027,384.738z M240.358,368.582l33.705,7.035l-17.375-98.564l-29.299,18.109L240.358,368.582
				z"/>
		</g>
		<g>
			<path fill="#3A3847" d="M354.986,355.158c-1.906,0-3.594-1.367-3.928-3.311l-13.83-78.762c-0.383-2.178,1.07-4.248,3.24-4.631
				c2.141-0.391,4.248,1.062,4.631,3.248l13.83,78.762c0.383,2.178-1.07,4.248-3.242,4.631
				C355.455,355.135,355.221,355.158,354.986,355.158z"/>
		</g>
		<g>
			<path fill="#3A3847" d="M241.522,310.131c-1.905,0-3.6-1.373-3.936-3.318c-0.367-2.178,1.093-4.248,3.264-4.615l7.918-1.357
				c2.218-0.367,4.248,1.076,4.623,3.264c0.367,2.17-1.093,4.24-3.264,4.615l-7.918,1.357
				C241.975,310.115,241.749,310.131,241.522,310.131z"/>
		</g>
		<g>
			<path fill="#3A3847" d="M249.838,357.391c-1.905,0-3.6-1.373-3.936-3.318c-0.367-2.178,1.093-4.248,3.264-4.615l7.919-1.359
				c2.201-0.357,4.248,1.078,4.621,3.266c0.367,2.17-1.092,4.24-3.264,4.615l-7.918,1.357
				C250.292,357.375,250.065,357.391,249.838,357.391z"/>
		</g>
		<g>
			<path fill="#3A3847" d="M245.676,333.809c-1.905,0-3.6-1.375-3.936-3.318c-0.375-2.18,1.085-4.248,3.264-4.623l7.918-1.359
				c2.21-0.367,4.249,1.078,4.622,3.256c0.375,2.18-1.084,4.248-3.263,4.623l-7.918,1.359
				C246.129,333.785,245.903,333.809,245.676,333.809z"/>
		</g>
		<g>
			<path fill="#3A3847" d="M266.791,269.197c-1.896,0-3.584-1.367-3.928-3.303c-0.391-2.172,1.062-4.248,3.232-4.631l15.752-2.803
				c2.209-0.406,4.256,1.061,4.639,3.24c0.391,2.17-1.062,4.248-3.234,4.631l-15.75,2.803
				C267.26,269.174,267.025,269.197,266.791,269.197z"/>
		</g>
		<g>
			<path fill="#3A3847" d="M386.502,487.574c-1.514,0-2.967-0.867-3.639-2.344l-37.506-82.523c-0.914-2.008-0.023-4.381,1.982-5.295
				c2.016-0.906,4.381-0.016,5.295,1.982l37.506,82.525c0.914,2.016,0.023,4.381-1.982,5.295
				C387.619,487.465,387.057,487.574,386.502,487.574z"/>
		</g>
		<g>
			<path fill="#3A3847" d="M347.16,494.531c-1.514,0-2.967-0.875-3.639-2.342l-37.584-82.604c-0.914-2.014-0.023-4.381,1.984-5.295
				c2.014-0.912,4.381-0.031,5.293,1.984l37.586,82.604c0.912,2.006,0.023,4.379-1.984,5.293
				C348.277,494.414,347.715,494.531,347.16,494.531z"/>
		</g>
		<g>
			<path fill="#3A3847" d="M339.234,495.969c-1.889,0-3.576-1.352-3.928-3.279c-0.391-2.172,1.047-4.256,3.217-4.646l55.125-9.77
				c2.131-0.375,4.24,1.07,4.621,3.256c0.383,2.18-1.076,4.248-3.248,4.623l-55.061,9.754
				C339.719,495.953,339.477,495.969,339.234,495.969z"/>
		</g>
		<g>
			<path fill="#3A3847" d="M291.102,406.971c-1.891,0-3.578-1.352-3.928-3.281l-1.602-8.799c-0.391-2.172,1.047-4.248,3.217-4.646
				c2.141-0.43,4.256,1.037,4.654,3.217l1.602,8.801c0.391,2.17-1.047,4.248-3.219,4.646
				C291.584,406.955,291.344,406.971,291.102,406.971z"/>
		</g>
		<g>
			<path fill="#3A3847" d="M291.102,406.971c-1.906,0-3.602-1.367-3.936-3.32c-0.375-2.17,1.084-4.24,3.264-4.613l70.92-12.238
				c2.141-0.357,4.248,1.078,4.623,3.258c0.375,2.178-1.086,4.248-3.264,4.623l-70.922,12.236
				C291.561,406.955,291.328,406.971,291.102,406.971z"/>
		</g>
		<g>
			<path fill="#3A3847" d="M362.021,394.734c-1.891,0-3.568-1.344-3.928-3.273l-1.438-7.84c-0.398-2.17,1.047-4.256,3.217-4.654
				c2.133-0.398,4.248,1.039,4.654,3.211l1.438,7.84c0.398,2.17-1.047,4.256-3.217,4.654
				C362.506,394.719,362.264,394.734,362.021,394.734z"/>
		</g>
		<g>
			<path fill="#3A3847" d="M507.885,263.918c-2.211,0-3.998-1.787-3.998-3.998V20.03c0-2.21,1.787-3.999,3.998-3.999
				c2.209,0,3.998,1.789,3.998,3.999v239.89C511.883,262.131,510.094,263.918,507.885,263.918z"/>
		</g>
		<g>
			<path fill="#3A3847" d="M52.093,375.867c-2.209,0-3.998-1.789-3.998-3.998V20.03c0-2.21,1.789-3.999,3.998-3.999
				c2.21,0,3.999,1.789,3.999,3.999v351.839C56.091,374.078,54.303,375.867,52.093,375.867z"/>
		</g>
		<g>
			<path fill="#3A3847" d="M28.104,399.855c-2.21,0-3.998-1.787-3.998-3.998c0-2.209,1.788-3.998,3.998-3.998
				c11.026,0,19.991-8.973,19.991-19.99c0-2.211,1.789-3.998,3.998-3.998c2.21,0,3.999,1.787,3.999,3.998
				C56.091,387.299,43.534,399.855,28.104,399.855z"/>
		</g>
		<g>
			<path fill="#3A3847" d="M28.104,399.855c-15.431,0-27.987-12.557-27.987-27.986c0-2.211,1.788-3.998,3.998-3.998
				s3.998,1.787,3.998,3.998c0,11.018,8.965,19.99,19.991,19.99c2.21,0,3.998,1.789,3.998,3.998
				C32.102,398.068,30.314,399.855,28.104,399.855z"/>
		</g>
		<g>
			<path fill="#3A3847" d="M4.115,375.867c-2.21,0-3.998-1.789-3.998-3.998V44.019c0-2.21,1.788-3.998,3.998-3.998
				s3.998,1.788,3.998,3.998v327.85C8.113,374.078,6.325,375.867,4.115,375.867z"/>
		</g>
		<g>
			<path fill="#3A3847" d="M36.1,375.867c-2.21,0-3.998-1.789-3.998-3.998V28.027c0-2.21,1.788-3.999,3.998-3.999
				s3.998,1.789,3.998,3.999v343.842C40.098,374.078,38.31,375.867,36.1,375.867z"/>
		</g>
		<g>
			<path fill="#3A3847" d="M20.107,375.867c-2.209,0-3.998-1.789-3.998-3.998V36.023c0-2.21,1.789-3.998,3.998-3.998
				c2.21,0,3.999,1.788,3.999,3.998v335.846C24.106,374.078,22.317,375.867,20.107,375.867z"/>
		</g>
		<g>
			<path fill="#3A3847" d="M28.104,383.863c-2.21,0-3.998-1.787-3.998-3.998c0-2.209,1.788-3.998,3.998-3.998
				c2.202,0,3.998-1.797,3.998-3.998c0-2.211,1.788-3.998,3.998-3.998s3.998,1.787,3.998,3.998
				C40.098,378.482,34.718,383.863,28.104,383.863z"/>
		</g>
		<g>
			<path fill="#3A3847" d="M28.104,383.863c-6.614,0-11.995-5.381-11.995-11.994c0-2.211,1.789-3.998,3.998-3.998
				c2.21,0,3.999,1.787,3.999,3.998c0,2.201,1.796,3.998,3.998,3.998c2.21,0,3.998,1.789,3.998,3.998
				C32.102,382.076,30.314,383.863,28.104,383.863z"/>
		</g>
		<g>
			<path fill="#3A3847" d="M252.72,399.855H28.104c-2.21,0-3.998-1.787-3.998-3.998c0-2.209,1.788-3.998,3.998-3.998H252.72
				c2.21,0,3.999,1.789,3.999,3.998C256.718,398.068,254.93,399.855,252.72,399.855z"/>
		</g>
		<g>
			<path fill="#3A3847" d="M507.885,24.028H52.093c-2.209,0-3.998-1.789-3.998-3.998c0-2.21,1.789-3.999,3.998-3.999h455.792
				c2.209,0,3.998,1.789,3.998,3.999C511.883,22.24,510.094,24.028,507.885,24.028z"/>
		</g>
		<g>
			<path fill="#3A3847" d="M475.898,103.992H100.071c-2.21,0-3.998-1.788-3.998-3.998V52.016c0-2.21,1.788-3.999,3.998-3.999
				h375.828c2.211,0,3.998,1.789,3.998,3.999v47.978C479.896,102.204,478.109,103.992,475.898,103.992z M104.069,95.996H471.9
				V56.014H104.069V95.996z"/>
		</g>
		<g>
			<path fill="#3A3847" d="M451.91,80.002H124.06c-2.21,0-3.998-1.788-3.998-3.998s1.788-3.998,3.998-3.998h327.85
				c2.209,0,3.998,1.788,3.998,3.998S454.119,80.002,451.91,80.002z"/>
		</g>
		<g>
			<path fill="#3A3847" d="M459.906,399.855h-71.967c-2.211,0-3.998-1.787-3.998-3.998c0-2.209,1.787-3.998,3.998-3.998h71.967
				c2.211,0,3.998,1.789,3.998,3.998C463.904,398.068,462.117,399.855,459.906,399.855z"/>
		</g>
		<g>
			<path fill="#3A3847" d="M212.02,207.944H100.071c-2.21,0-3.998-1.788-3.998-3.998v-71.967c0-2.21,1.788-3.998,3.998-3.998H212.02
				c2.209,0,3.998,1.788,3.998,3.998v71.967C216.018,206.156,214.229,207.944,212.02,207.944z M104.069,199.948h103.953v-63.971
				H104.069V199.948z"/>
		</g>
		<g>
			<path fill="#3A3847" d="M142.13,207.944c-0.835,0-1.679-0.257-2.39-0.796c-1.773-1.32-2.132-3.827-0.812-5.6l29.908-39.981
				c1.335-1.765,3.842-2.116,5.599-0.804c1.765,1.32,2.124,3.827,0.805,5.599l-29.908,39.974
				C144.55,207.39,143.348,207.944,142.13,207.944z"/>
		</g>
		<g>
			<path fill="#3A3847" d="M202.102,207.944c-1.21,0-2.413-0.554-3.193-1.601l-30.064-39.981c-1.328-1.765-0.977-4.271,0.789-5.591
				c1.75-1.32,4.271-0.984,5.599,0.789l30.064,39.981c1.327,1.765,0.976,4.271-0.789,5.6
				C203.789,207.679,202.946,207.944,202.102,207.944z"/>
		</g>
		<g>
			<path fill="#3A3847" d="M118.867,207.944c-0.765,0-1.53-0.218-2.21-0.664c-1.835-1.226-2.342-3.702-1.124-5.544l21.186-31.985
				c1.226-1.843,3.717-2.335,5.544-1.124c1.835,1.218,2.343,3.701,1.125,5.536l-21.186,31.985
				C121.428,207.312,120.164,207.944,118.867,207.944z"/>
		</g>
		<g>
			<path fill="#3A3847" d="M152.29,194.349c-1.289,0-2.562-0.625-3.327-1.789l-12.236-18.39c-1.226-1.835-0.727-4.318,1.109-5.544
				c1.835-1.219,4.318-0.734,5.544,1.116l12.236,18.39c1.226,1.843,0.727,4.318-1.109,5.544
				C153.82,194.13,153.054,194.349,152.29,194.349z"/>
		</g>
		<g>
			<path fill="#3A3847" d="M124.06,167.962c-6.614,0-11.995-5.38-11.995-11.994c0-6.614,5.38-11.995,11.995-11.995
				s11.994,5.381,11.994,11.995C136.054,162.582,130.674,167.962,124.06,167.962z M124.06,151.97c-2.202,0-3.998,1.789-3.998,3.999
				c0,2.202,1.796,3.998,3.998,3.998s3.998-1.796,3.998-3.998C128.058,153.758,126.262,151.97,124.06,151.97z"/>
		</g>
		<g>
			<path fill="#3A3847" d="M339.961,135.977H236.009c-2.21,0-3.999-1.788-3.999-3.998s1.789-3.998,3.999-3.998h103.952
				c2.211,0,3.998,1.788,3.998,3.998S342.172,135.977,339.961,135.977z"/>
		</g>
		<g>
			<path fill="#3A3847" d="M339.961,159.966H236.009c-2.21,0-3.999-1.788-3.999-3.998s1.789-3.999,3.999-3.999h103.952
				c2.211,0,3.998,1.789,3.998,3.999S342.172,159.966,339.961,159.966z"/>
		</g>
		<g>
			<path fill="#3A3847" d="M339.961,183.955H236.009c-2.21,0-3.999-1.788-3.999-3.998s1.789-3.999,3.999-3.999h103.952
				c2.211,0,3.998,1.789,3.998,3.999S342.172,183.955,339.961,183.955z"/>
		</g>
		<g>
			<path fill="#3A3847" d="M339.961,207.944H236.009c-2.21,0-3.999-1.788-3.999-3.998s1.789-3.998,3.999-3.998h103.952
				c2.211,0,3.998,1.788,3.998,3.998S342.172,207.944,339.961,207.944z"/>
		</g>
		<g>
			<path fill="#3A3847" d="M339.961,231.933H236.009c-2.21,0-3.999-1.788-3.999-3.998s1.789-3.998,3.999-3.998h103.952
				c2.211,0,3.998,1.788,3.998,3.998S342.172,231.933,339.961,231.933z"/>
		</g>
		<g>
			<path fill="#3A3847" d="M252.001,255.922h-15.993c-2.21,0-3.999-1.788-3.999-3.998s1.789-3.999,3.999-3.999h15.993
				c2.21,0,3.998,1.789,3.998,3.999S254.211,255.922,252.001,255.922z"/>
		</g>
		<g>
			<path fill="#3A3847" d="M212.34,231.933H100.391c-2.21,0-3.998-1.788-3.998-3.998s1.788-3.998,3.998-3.998H212.34
				c2.21,0,3.998,1.788,3.998,3.998S214.55,231.933,212.34,231.933z"/>
		</g>
		<g>
			<path fill="#3A3847" d="M196.347,327.889h-95.956c-2.21,0-3.998-1.787-3.998-3.998c0-2.209,1.788-3.998,3.998-3.998h95.956
				c2.21,0,3.998,1.789,3.998,3.998C200.345,326.102,198.557,327.889,196.347,327.889z"/>
		</g>
		<g>
			<path fill="#3A3847" d="M204.343,351.879H100.391c-2.21,0-3.998-1.789-3.998-3.998c0-2.211,1.788-4,3.998-4h103.952
				c2.21,0,3.998,1.789,3.998,4C208.341,350.09,206.553,351.879,204.343,351.879z"/>
		</g>
		<g>
			<path fill="#3A3847" d="M212.34,375.867H100.391c-2.21,0-3.998-1.789-3.998-3.998c0-2.211,1.788-3.998,3.998-3.998H212.34
				c2.21,0,3.998,1.787,3.998,3.998C216.338,374.078,214.55,375.867,212.34,375.867z"/>
		</g>
		<g>
			<path fill="#3A3847" d="M212.34,255.922H100.391c-2.21,0-3.998-1.788-3.998-3.998s1.788-3.999,3.998-3.999H212.34
				c2.21,0,3.998,1.789,3.998,3.999S214.55,255.922,212.34,255.922z"/>
		</g>
		<g>
			<path fill="#3A3847" d="M204.343,279.91H100.391c-2.21,0-3.998-1.787-3.998-3.998c0-2.209,1.788-3.998,3.998-3.998h103.952
				c2.21,0,3.998,1.789,3.998,3.998C208.341,278.123,206.553,279.91,204.343,279.91z"/>
		</g>
		<g>
			<path fill="#3A3847" d="M196.347,303.9h-95.956c-2.21,0-3.998-1.789-3.998-3.998c0-2.211,1.788-3.998,3.998-3.998h95.956
				c2.21,0,3.998,1.787,3.998,3.998C200.345,302.111,198.557,303.9,196.347,303.9z"/>
		</g>
		<g>
			<path fill="#3A3847" d="M475.898,135.977H363.951c-2.211,0-4-1.788-4-3.998s1.789-3.998,4-3.998h111.947
				c2.211,0,3.998,1.788,3.998,3.998S478.109,135.977,475.898,135.977z"/>
		</g>
		<g>
			<path fill="#3A3847" d="M475.898,159.966H363.951c-2.211,0-4-1.788-4-3.998s1.789-3.999,4-3.999h111.947
				c2.211,0,3.998,1.789,3.998,3.999S478.109,159.966,475.898,159.966z"/>
		</g>
		<g>
			<path fill="#3A3847" d="M435.918,183.955h-71.967c-2.211,0-4-1.788-4-3.998s1.789-3.999,4-3.999h71.967
				c2.209,0,3.998,1.789,3.998,3.999S438.127,183.955,435.918,183.955z"/>
		</g>
		<g>
			<path fill="#3A3847" d="M411.928,207.944h-47.977c-2.211,0-4-1.788-4-3.998s1.789-3.998,4-3.998h47.977
				c2.211,0,3.998,1.788,3.998,3.998S414.139,207.944,411.928,207.944z"/>
		</g>
		<g>
			<path fill="#3A3847" d="M371.947,231.933h-7.996c-2.211,0-4-1.788-4-3.998s1.789-3.998,4-3.998h7.996
				c2.209,0,3.998,1.788,3.998,3.998S374.156,231.933,371.947,231.933z"/>
		</g>
	</g>
</g>
</svg>
