<?xml version="1.0" encoding="utf-8"?>
<!-- Generator: Adobe Illustrator 24.3.0, SVG Export Plug-In . SVG Version: 6.00 Build 0)  -->
<svg version="1.1" id="Layer_1" xmlns="http://www.w3.org/2000/svg" xmlns:xlink="http://www.w3.org/1999/xlink" x="0px" y="0px"
	 viewBox="0 0 120 120" enable-background="new 0 0 120 120" xml:space="preserve">
<g>
	<g>
		<path fill="#00A1F1" d="M28.298,84.001v4.885c0,1.08,0.875,1.955,1.954,1.955h58.626c1.078,0,1.953-0.875,1.953-1.955v-4.885
			H28.298z"/>
		<path fill="#00A1F1" d="M40.999,67.737V37.589H37.58v32.245h16.814C51.544,68.707,47.273,67.737,40.999,67.737z"/>
		<path fill="#00A1F1" d="M81.55,37.589h-3.421v30.147c-6.274,0-10.544,0.971-13.394,2.098H81.55V37.589z"/>
	</g>
	<polygon fill="#FFBB00" points="59.56,37.103 53.698,35.149 53.698,73.254 65.423,73.254 65.423,35.149 	"/>
	<path fill="#F65314" d="M54.186,73.254v2.931c0,1.08,0.803,1.955,1.791,1.955h7.166c0.989,0,1.791-0.875,1.791-1.955v-2.931H54.186
		z"/>
	<polygon fill="#7CBB00" points="63.211,32.568 59.56,28.309 55.91,32.568 59.56,33.784 	"/>
	<g>
		<path fill="#1A171B" d="M90.831,44.023c-0.404,0-0.732,0.328-0.732,0.732v12.703c0,0.404,0.328,0.732,0.732,0.732
			c0.404,0,0.732-0.328,0.732-0.732V44.755C91.563,44.351,91.235,44.023,90.831,44.023z"/>
		<path fill="#1A171B" d="M90.831,61.611c-0.404,0-0.732,0.329-0.732,0.733v4.884c0,0.404,0.328,0.732,0.732,0.732
			c0.404,0,0.732-0.328,0.732-0.732v-4.884C91.563,61.94,91.235,61.611,90.831,61.611z"/>
		<path fill="#1A171B" d="M28.297,61.12c0.405,0,0.733-0.328,0.733-0.732V47.685c0-0.404-0.328-0.732-0.733-0.732
			c-0.404,0-0.733,0.328-0.733,0.732v12.703C27.563,60.792,27.892,61.12,28.297,61.12z"/>
		<path fill="#1A171B" d="M28.297,43.532c0.405,0,0.733-0.328,0.733-0.733v-4.884c0-0.405-0.328-0.733-0.733-0.733
			c-0.404,0-0.733,0.328-0.733,0.733v4.884C27.563,43.204,27.892,43.532,28.297,43.532z"/>
		<path fill="#1A171B" d="M59.569,79.523c-0.41,0-0.733,0.332-0.733,0.732c0,0.41,0.323,0.732,0.733,0.732
			c0.4,0,0.733-0.322,0.733-0.732C60.302,79.855,59.97,79.523,59.569,79.523z"/>
		<path fill="#1A171B" d="M64.434,79.523c-0.4,0-0.732,0.332-0.732,0.732c0,0.41,0.332,0.732,0.732,0.732s0.732-0.322,0.732-0.732
			C65.167,79.855,64.835,79.523,64.434,79.523z"/>
		<circle fill="#1A171B" cx="54.693" cy="80.255" r="0.733"/>
		<path fill="#1A171B" d="M40.085,79.523c-0.41,0-0.732,0.332-0.732,0.732c0,0.41,0.322,0.732,0.732,0.732
			c0.401,0,0.733-0.322,0.733-0.732C40.818,79.855,40.486,79.523,40.085,79.523z"/>
		<path fill="#1A171B" d="M35.21,79.523c-0.4,0-0.732,0.332-0.732,0.732c0,0.41,0.332,0.732,0.732,0.732
			c0.41,0,0.732-0.322,0.732-0.732C35.942,79.855,35.62,79.523,35.21,79.523z"/>
		<path fill="#1A171B" d="M69.301,79.523c-0.4,0-0.723,0.332-0.723,0.732c0,0.41,0.322,0.732,0.723,0.732
			c0.41,0,0.733-0.322,0.733-0.732C70.034,79.855,69.711,79.523,69.301,79.523z"/>
		<path fill="#1A171B" d="M49.827,79.523c-0.41,0-0.732,0.332-0.732,0.732c0,0.41,0.322,0.732,0.732,0.732
			c0.4,0,0.732-0.322,0.732-0.732C50.559,79.855,50.227,79.523,49.827,79.523z"/>
		<path fill="#1A171B" d="M44.952,79.523c-0.401,0-0.733,0.332-0.733,0.732c0,0.41,0.332,0.732,0.733,0.732
			c0.4,0,0.732-0.322,0.732-0.732C45.684,79.855,45.352,79.523,44.952,79.523z"/>
		<path fill="#1A171B" d="M74.177,79.523c-0.4,0-0.732,0.332-0.732,0.732c0,0.41,0.332,0.732,0.732,0.732
			c0.4,0,0.732-0.322,0.732-0.732C74.909,79.855,74.577,79.523,74.177,79.523z"/>
		<circle fill="#1A171B" cx="83.918" cy="80.255" r="0.733"/>
		<path fill="#1A171B" d="M79.052,79.523c-0.41,0-0.732,0.332-0.732,0.732c0,0.41,0.322,0.732,0.732,0.732
			c0.401,0,0.733-0.322,0.733-0.732C79.785,79.855,79.453,79.523,79.052,79.523z"/>
		<path fill="#1A171B" d="M82.022,76.269c-0.41,0-0.732,0.322-0.732,0.732c0,0.4,0.322,0.732,0.732,0.732
			c0.4,0,0.732-0.332,0.732-0.732C82.755,76.591,82.423,76.269,82.022,76.269z"/>
		<path fill="#1A171B" d="M47.091,76.269c-0.41,0-0.732,0.322-0.732,0.732c0,0.4,0.322,0.732,0.732,0.732
			c0.401,0,0.733-0.332,0.733-0.732C47.824,76.591,47.492,76.269,47.091,76.269z"/>
		<circle fill="#1A171B" cx="37.105" cy="77.001" r="0.733"/>
		<path fill="#1A171B" d="M42.098,76.269c-0.41,0-0.732,0.322-0.732,0.732c0,0.4,0.322,0.732,0.732,0.732
			c0.4,0,0.733-0.332,0.733-0.732C42.831,76.591,42.499,76.269,42.098,76.269z"/>
		<path fill="#1A171B" d="M67.054,76.269c-0.41,0-0.732,0.322-0.732,0.732c0,0.4,0.322,0.732,0.732,0.732
			c0.4,0,0.732-0.332,0.732-0.732C67.786,76.591,67.454,76.269,67.054,76.269z"/>
		<path fill="#1A171B" d="M72.037,76.269c-0.401,0-0.733,0.322-0.733,0.732c0,0.4,0.332,0.732,0.733,0.732
			c0.41,0,0.733-0.332,0.733-0.732C72.77,76.591,72.447,76.269,72.037,76.269z"/>
		<path fill="#1A171B" d="M77.03,76.269c-0.401,0-0.733,0.322-0.733,0.732c0,0.4,0.332,0.732,0.733,0.732
			c0.4,0,0.732-0.332,0.732-0.732C77.763,76.591,77.431,76.269,77.03,76.269z"/>
		<path fill="#1A171B" d="M52.075,76.269c-0.401,0-0.733,0.322-0.733,0.732c0,0.4,0.332,0.732,0.733,0.732
			c0.41,0,0.732-0.332,0.732-0.732C52.807,76.591,52.485,76.269,52.075,76.269z"/>
		<path fill="#1A171B" d="M56.634,88.154h5.862c0.404,0,0.733-0.328,0.733-0.732c0-0.404-0.329-0.732-0.733-0.732h-5.862
			c-0.404,0-0.733,0.328-0.733,0.732C55.9,87.825,56.229,88.154,56.634,88.154z"/>
		<path fill="#1A171B" d="M85.702,73.068V36.124c0-1.482-1.205-2.688-2.688-2.688h-4.152v-5.129c0-0.405-0.328-0.733-0.733-0.733
			c-7.966,0-12.798,1.542-15.623,3.044l-2.389-2.787c-0.278-0.324-0.834-0.324-1.112,0l-2.387,2.785
			c-2.825-1.501-7.656-3.042-15.619-3.042c-0.404,0-0.732,0.328-0.732,0.733v5.129h-4.152c-1.483,0-2.688,1.205-2.688,2.688v36.943
			L27.655,83.65c-0.06,0.107-0.09,0.229-0.09,0.352v4.885c0,1.482,1.205,2.688,2.687,2.688h58.625c1.481,0,2.687-1.205,2.687-2.688
			v-4.885c0-0.123-0.029-0.244-0.089-0.352L85.702,73.068z M78.862,67.737V34.903h4.152c0.674,0,1.222,0.548,1.222,1.222v36.396
			h-18.08v-2.404c2.734-0.914,6.589-1.646,11.973-1.646C78.534,68.47,78.862,68.142,78.862,67.737z M77.395,29.044v37.964
			c-4.877,0.06-8.523,0.71-11.239,1.556V35.149c0-0.175-0.062-0.344-0.177-0.477l-2.481-2.895
			C66.067,30.478,70.393,29.133,77.395,29.044z M59.56,29.435l4.597,5.363l-4.597,1.533l-4.597-1.533L59.56,29.435z M64.69,36.165
			v36.355h-4.396v-34.89L64.69,36.165z M58.828,37.631v34.89h-4.397V36.165L58.828,37.631z M41.731,29.044
			c7,0.088,11.325,1.433,13.895,2.729l-2.484,2.898c-0.113,0.134-0.176,0.303-0.176,0.477v33.416
			c-2.715-0.846-6.355-1.497-11.234-1.557V29.044z M34.893,36.124c0-0.674,0.547-1.222,1.221-1.222h4.152v32.834
			c0,0.405,0.328,0.733,0.732,0.733c5.388,0,9.235,0.734,11.967,1.648v2.402H34.893V36.124z M34.595,73.987h49.939l5.063,9.282
			H29.532L34.595,73.987z M90.098,88.886c0,0.674-0.548,1.222-1.222,1.222H30.252c-0.673,0-1.222-0.548-1.222-1.222v-4.152h61.068
			V88.886z"/>
	</g>
</g>
</svg>
