<?xml version="1.0" encoding="utf-8"?>
<!-- Generator: Adobe Illustrator 22.1.0, SVG Export Plug-In . SVG Version: 6.00 Build 0)  -->
<svg version="1.1" id="Layer_1" xmlns="http://www.w3.org/2000/svg" xmlns:xlink="http://www.w3.org/1999/xlink" x="0px" y="0px"
	 viewBox="0 0 256 256" style="enable-background:new 0 0 256 256;" xml:space="preserve">
<style type="text/css">
	.st0{fill:#D73735;}
	.st1{fill:#F85252;}
	.st2{fill:#EDAF85;}
	.st3{fill:#F7C09A;}
	.st4{fill:#D8D6D7;}
	.st5{fill:#FFFFFF;}
	.st6{fill:#1C868E;}
	.st7{fill:#40C4DF;}
	.st8{fill:#491352;}
	.st9{fill:#56C1B3;}
	.st10{fill:#7BEFE4;}
</style>
<g>
	<path class="st6" d="M238.67,61.88c0,15.66-6.35,29.82-16.6,40.08c-10.26,10.26-24.43,16.6-40.08,16.6H74.01
		c-31.3,0-56.68-25.37-56.68-56.68c0-3.12,0.25-6.19,0.74-9.17c1.95-11.98,7.66-22.7,15.86-30.91C44.19,11.54,58.36,5.2,74.01,5.2
		h107.98c29.77,0,54.19,22.97,56.5,52.15C238.61,58.84,238.67,60.35,238.67,61.88z"/>
	<path class="st7" d="M238.49,57.35c-1.95,11.99-7.65,22.73-15.87,30.94c-10.26,10.26-24.43,16.6-40.08,16.6H74.56
		c-29.79,0-54.2-22.97-56.49-52.18c1.95-11.98,7.66-22.7,15.86-30.91C44.19,11.54,58.36,5.2,74.01,5.2h107.98
		C211.76,5.2,236.18,28.17,238.49,57.35z"/>
	<path class="st0" d="M238.67,194.12c0,15.65-6.35,29.82-16.6,40.08c-10.26,10.26-24.43,16.6-40.08,16.6H74.01
		c-31.3,0-56.68-25.38-56.68-56.68c0-3.12,0.25-6.19,0.74-9.17c1.95-11.98,7.65-22.7,15.86-30.91c10.26-10.26,24.43-16.6,40.08-16.6
		h107.98c29.78,0,54.19,22.96,56.5,52.15C238.61,191.08,238.67,192.59,238.67,194.12z"/>
	<path class="st1" d="M238.49,189.59c-1.95,11.99-7.65,22.72-15.87,30.93c-10.26,10.26-24.43,16.6-40.08,16.6H74.56
		c-29.78,0-54.2-22.97-56.49-52.17c1.95-11.98,7.65-22.7,15.86-30.91c10.26-10.26,24.43-16.6,40.08-16.6h107.98
		C211.77,137.44,236.18,160.4,238.49,189.59z"/>
	<path class="st4" d="M121.53,61.88c0,21.39-15.6,39.12-36.03,42.46c-2.28,0.38-4.62,0.57-7,0.57c-23.76,0-43.03-19.26-43.03-43.03
		c0-23.76,19.27-43.02,43.03-43.02c2.38,0,4.72,0.19,7,0.57C105.93,22.77,121.53,40.5,121.53,61.88z"/>
	<path class="st4" d="M220.53,194.12c0,21.38-15.6,39.11-36.03,42.45c-2.28,0.38-4.62,0.57-7,0.57c-23.76,0-43.03-19.26-43.03-43.02
		c0-23.77,19.27-43.03,43.03-43.03c2.38,0,4.72,0.19,7,0.57C204.93,155,220.53,172.73,220.53,194.12z"/>
	<path class="st5" d="M121.53,61.88c0,21.39-15.6,39.12-36.03,42.46C65.07,101,49.47,83.27,49.47,61.88
		c0-21.38,15.6-39.11,36.03-42.45C105.93,22.77,121.53,40.5,121.53,61.88z"/>
	<path class="st5" d="M220.53,194.12c0,21.38-15.6,39.11-36.03,42.45c-20.43-3.34-36.03-21.07-36.03-42.45
		c0-21.39,15.6-39.12,36.03-42.46C204.93,155,220.53,172.73,220.53,194.12z"/>
	<g>
		<path class="st7" d="M65.052,83.442L52.944,73.064c-2.936-2.516-3.275-6.935-0.759-9.87c2.515-2.936,6.934-3.276,9.87-0.759
			l8.002,6.858l18.618-27.927c2.144-3.217,6.489-4.088,9.707-1.941c3.217,2.145,4.086,6.49,1.941,9.707L78.707,81.559
			C75.638,86.161,69.236,87.03,65.052,83.442z"/>
	</g>
	<path class="st1" d="M187.399,194.117l12.375-12.375c2.734-2.734,2.734-7.166,0-9.899c-2.734-2.734-7.166-2.734-9.9,0
		l-12.374,12.375l-12.374-12.375c-2.734-2.734-7.166-2.734-9.9,0c-2.734,2.734-2.734,7.166,0,9.899l12.375,12.375l-12.375,12.374
		c-2.734,2.734-2.734,7.166,0,9.9c2.734,2.734,7.166,2.734,9.9,0l12.374-12.375l12.374,12.375c2.734,2.734,7.166,2.734,9.9,0
		c2.734-2.734,2.734-7.166,0-9.9L187.399,194.117z"/>
	<g>
		<path class="st8" d="M74.011,120.561h107.979c32.355,0,58.678-26.322,58.678-58.678S214.345,3.205,181.989,3.205H74.011
			c-32.355,0-58.678,26.322-58.678,58.678S41.655,120.561,74.011,120.561z M74.011,7.205h107.979
			c30.149,0,54.678,24.528,54.678,54.678s-24.528,54.678-54.678,54.678H74.011c-30.149,0-54.678-24.528-54.678-54.678
			S43.861,7.205,74.011,7.205z"/>
		<path class="st8" d="M78.501,106.908c24.827,0,45.025-20.198,45.025-45.025s-20.198-45.025-45.025-45.025
			S33.475,37.056,33.475,61.883S53.674,106.908,78.501,106.908z M78.501,20.857c22.621,0,41.025,18.404,41.025,41.025
			s-18.404,41.025-41.025,41.025c-22.622,0-41.026-18.404-41.026-41.025S55.879,20.857,78.501,20.857z"/>
		<path class="st8" d="M181.989,135.439H74.011c-32.355,0-58.678,26.322-58.678,58.678s26.322,58.678,58.678,58.678h107.979
			c32.355,0,58.678-26.322,58.678-58.678S214.345,135.439,181.989,135.439z M181.989,248.795H74.011
			c-30.149,0-54.678-24.528-54.678-54.678s24.528-54.678,54.678-54.678h107.979c30.149,0,54.678,24.528,54.678,54.678
			S212.139,248.795,181.989,248.795z"/>
		<path class="st8" d="M177.499,149.092c-24.827,0-45.025,20.198-45.025,45.025s20.198,45.025,45.025,45.025
			s45.026-20.198,45.026-45.025S202.326,149.092,177.499,149.092z M177.499,235.143c-22.621,0-41.025-18.404-41.025-41.025
			s18.404-41.025,41.025-41.025c22.622,0,41.026,18.404,41.026,41.025S200.121,235.143,177.499,235.143z"/>
		<path class="st8" d="M51.643,74.583L63.75,84.961c5.086,4.361,12.885,3.308,16.621-2.293l21.617-32.426
			c1.334-2,1.809-4.4,1.337-6.757c-1.569-7.844-11.885-9.871-16.313-3.228L69.646,66.307c-6.366-5.456-8.224-7.893-12.837-7.53
			C48.788,59.391,45.612,69.414,51.643,74.583z M57.507,62.749c2.383,0,2.695,0.732,11.249,8.063
			c0.921,0.787,2.306,0.582,2.966-0.409L90.34,42.477c2.475-3.71,8.194-2.543,9.063,1.793c0.559,2.799,1.154,0.908-22.36,36.18
			c-2.4,3.6-7.419,4.279-10.689,1.475c-13.016-11.157-13.629-11.071-13.839-13.79C52.292,65.244,54.566,62.749,57.507,62.749z"/>
		<path class="st8" d="M190.227,194.117l10.961-10.961c3.509-3.508,3.509-9.218,0-12.728c-3.51-3.51-9.22-3.508-12.728,0
			l-10.961,10.961l-10.96-10.961c-3.508-3.51-9.22-3.51-12.728,0c-3.509,3.51-3.509,9.22,0,12.728l10.96,10.961l-10.96,10.96
			c-5.675,5.677-1.59,15.364,6.363,15.364c4.817,0,5.974-2.246,17.324-13.597c11.364,11.363,12.516,13.597,17.324,13.597
			c7.953,0,12.04-9.688,6.364-15.364L190.227,194.117z M198.359,214.977c-1.96,1.958-5.12,1.951-7.071,0l-12.375-12.374
			c-0.781-0.781-2.047-0.781-2.828,0c-13.317,13.317-13.166,13.839-15.91,13.839c-4.411,0-6.691-5.378-3.535-8.536l12.374-12.374
			c0.781-0.781,0.781-2.047,0-2.828l-12.374-12.375c-1.949-1.949-1.949-5.121,0-7.071c1.947-1.948,5.12-1.951,7.071,0l12.374,12.375
			c0.375,0.375,0.884,0.586,1.414,0.586c1.142,0,0.454,0.375,13.789-12.961c1.949-1.949,5.122-1.949,7.071,0
			c1.949,1.95,1.949,5.122,0,7.071l-12.375,12.375c-0.375,0.375-0.586,0.884-0.586,1.414s0.211,1.039,0.586,1.414l12.375,12.374
			C200.309,209.855,200.309,213.027,198.359,214.977z"/>
	</g>
</g>
</svg>
